<svg xmlns="http://www.w3.org/2000/svg" viewBox="0 0 80 60" fill="none">
  <!-- Building silhouette -->
  <rect x="10" y="20" width="18" height="30" fill="#1e3a8a" opacity="0.9"/>
  <rect x="30" y="15" width="20" height="35" fill="#1e3a8a"/>
  <rect x="52" y="22" width="16" height="28" fill="#1e3a8a" opacity="0.9"/>
  
  <!-- Windows on buildings -->
  <rect x="13" y="24" width="4" height="4" fill="#0ea5e9" opacity="0.6"/>
  <rect x="19" y="24" width="4" height="4" fill="#0ea5e9" opacity="0.6"/>
  <rect x="13" y="31" width="4" height="4" fill="#0ea5e9" opacity="0.6"/>
  <rect x="19" y="31" width="4" height="4" fill="#0ea5e9" opacity="0.6"/>
  <rect x="13" y="38" width="4" height="4" fill="#0ea5e9" opacity="0.6"/>
  <rect x="19" y="38" width="4" height="4" fill="#0ea5e9" opacity="0.6"/>
  
  <rect x="34" y="19" width="4" height="4" fill="#0ea5e9" opacity="0.6"/>
  <rect x="41" y="19" width="4" height="4" fill="#0ea5e9" opacity="0.6"/>
  <rect x="34" y="26" width="4" height="4" fill="#0ea5e9" opacity="0.6"/>
  <rect x="41" y="26" width="4" height="4" fill="#0ea5e9" opacity="0.6"/>
  <rect x="34" y="33" width="4" height="4" fill="#0ea5e9" opacity="0.6"/>
  <rect x="41" y="33" width="4" height="4" fill="#0ea5e9" opacity="0.6"/>
  <rect x="34" y="40" width="4" height="4" fill="#0ea5e9" opacity="0.6"/>
  <rect x="41" y="40" width="4" height="4" fill="#0ea5e9" opacity="0.6"/>
  
  <rect x="55" y="26" width="4" height="4" fill="#0ea5e9" opacity="0.6"/>
  <rect x="61" y="26" width="4" height="4" fill="#0ea5e9" opacity="0.6"/>
  <rect x="55" y="33" width="4" height="4" fill="#0ea5e9" opacity="0.6"/>
  <rect x="61" y="33" width="4" height="4" fill="#0ea5e9" opacity="0.6"/>
  <rect x="55" y="40" width="4" height="4" fill="#0ea5e9" opacity="0.6"/>
  <rect x="61" y="40" width="4" height="4" fill="#0ea5e9" opacity="0.6"/>
  
  <!-- Water waves at bottom -->
  <path d="M 8 48 Q 14 45 20 48 T 32 48 T 44 48 T 56 48 T 68 48" 
        stroke="#0ea5e9" stroke-width="2" fill="none" opacity="0.8"/>
  <path d="M 8 52 Q 14 49 20 52 T 32 52 T 44 52 T 56 52 T 68 52" 
        stroke="#0ea5e9" stroke-width="2" fill="none" opacity="0.5"/>
</svg>

